<?xml version="1.0" standalone="no"?>
<!DOCTYPE svg PUBLIC "-//W3C//DTD SVG 20010904//EN"
 "http://www.w3.org/TR/2001/REC-SVG-20010904/DTD/svg10.dtd">
<svg version="1.0" xmlns="http://www.w3.org/2000/svg"
 width="842.000000pt" height="595.000000pt" viewBox="0 0 842.000000 595.000000"
 preserveAspectRatio="xMidYMid meet">

<g transform="translate(0.000000,595.000000) scale(0.100000,-0.100000)"
fill="#000000" stroke="none">
<path d="M0 2975 l0 -2975 4210 0 4210 0 0 2975 0 2975 -4210 0 -4210 0 0
-2975z m4360 2833 c1339 -3 1391 -3 478 -5 -566 -2 -1028 -7 -1028 -11 0 -4
15 -6 34 -4 21 2 43 -2 57 -11 22 -16 54 -13 43 4 -3 5 -1 9 5 9 5 0 12 -6 14
-12 4 -10 8 -9 16 2 8 12 13 12 23 2 9 -9 9 -12 0 -12 -7 0 -12 -13 -12 -29 0
-16 -6 -32 -12 -34 -8 -3 -6 -6 5 -6 9 -1 17 -8 17 -17 0 -8 -3 -13 -7 -11 -5
3 -8 -36 -8 -86 0 -51 -3 -270 -6 -487 -4 -217 -4 -352 0 -300 l6 95 7 -95 c8
-112 9 -120 20 -120 4 0 8 -31 8 -69 0 -40 5 -73 11 -77 8 -5 8 -8 0 -13 -12
-8 -19 -178 -20 -480 -1 -150 -3 -181 -14 -173 -16 14 -22 98 -7 107 6 4 10
86 9 233 0 125 -2 223 -4 217 -2 -5 -6 -27 -10 -48 -5 -34 -7 -36 -22 -21 -10
10 -30 15 -57 13 -23 -1 -67 -1 -98 0 -48 1 -58 4 -58 19 -1 15 -2 15 -11 -2
-9 -14 -8 -20 2 -27 10 -6 11 -9 2 -9 -8 0 -13 -14 -13 -35 l0 -35 60 0 c46 0
61 4 69 18 9 14 10 13 11 -11 0 -24 2 -26 20 -15 14 9 16 14 7 20 -8 5 -7 8 4
8 9 0 30 3 46 6 25 5 31 2 35 -14 9 -34 -2 -70 -20 -66 -75 14 -92 13 -92 -7
0 -11 -5 -17 -10 -14 -6 4 -10 12 -9 18 5 38 -1 42 -56 42 -51 1 -55 -1 -55
-22 0 -17 6 -23 23 -24 21 -1 21 -1 -3 -8 -23 -6 -25 -13 -30 -71 -3 -36 -9
-71 -14 -79 -6 -10 -6 -12 2 -7 7 4 12 1 12 -8 0 -9 -4 -16 -8 -16 -4 0 -8
-80 -7 -177 l0 -178 61 -3 60 -3 11 48 c10 48 10 48 12 -34 0 -46 4 -83 9 -83
4 0 6 22 5 50 0 27 3 50 8 50 14 0 11 38 -3 43 -7 2 8 7 33 11 45 7 70 24 82
56 3 8 6 -61 6 -155 0 -113 -3 -165 -9 -155 -5 8 -10 22 -10 31 0 19 -20 29
-55 29 -13 0 -27 5 -30 10 -3 6 -13 10 -21 10 -10 0 -14 -13 -14 -52 0 -28 -3
-48 -7 -44 -5 4 -8 31 -8 59 -2 120 3 112 -65 112 -57 0 -60 -1 -61 -25 -1
-14 -3 -46 -5 -72 -4 -46 -3 -48 23 -48 29 0 26 -10 -4 -14 -18 -3 -23 -46
-33 -346 -1 -45 -4 -57 -9 -40 -8 28 -16 506 -16 927 0 224 -2 274 -14 278
-21 8 -24 1 -28 -77 -2 -40 -8 -145 -13 -233 -5 -88 -12 -207 -15 -265 -13
-230 -16 -280 -25 -410 -19 -250 -20 -258 -44 -264 -11 -3 -32 -6 -46 -6 -57
-1 -57 -8 -10 -152 24 -73 61 -180 82 -238 22 -58 57 -161 80 -230 l40 -125 4
-431 c2 -237 0 -442 -4 -455 -10 -25 -17 79 -27 406 -12 361 -14 378 -29 387
-18 10 -36 -12 -35 -43 1 -13 -3 -76 -10 -139 -6 -63 -18 -194 -27 -290 -9
-96 -17 -184 -19 -195 -2 -11 -4 -27 -4 -36 -1 -14 -21 -24 -58 -31 -5 0 -32
-9 -62 -20 -62 -21 -143 -35 -246 -43 -101 -7 -145 -15 -145 -27 0 -8 24 -71
51 -133 9 -21 31 -77 84 -216 18 -47 40 -100 49 -117 9 -17 16 -39 16 -49 0
-19 88 -242 102 -258 4 -5 8 -18 8 -28 0 -10 9 -31 21 -45 12 -16 16 -28 10
-30 -6 -2 -11 -10 -11 -18 0 -9 -4 -12 -10 -9 -6 3 -7 -1 -4 -10 6 -14 8 -14
19 1 9 12 12 13 12 3 0 -8 3 -25 7 -39 6 -19 5 -21 -3 -10 -15 21 -14 10 4
-40 22 -62 19 -85 -12 -99 -18 -8 -123 -14 -327 -18 -166 -3 -303 -7 -305 -10
-3 -2 1 -9 7 -15 7 -7 12 -18 12 -25 0 -11 -5 -11 -20 -3 -11 6 -25 8 -30 5
-6 -3 -10 -2 -10 3 0 6 7 13 16 16 18 7 12 19 -11 22 -8 1 -16 -3 -16 -9 -1
-7 -2 -19 -3 -27 -1 -16 -27 -21 -37 -7 -3 4 -18 3 -32 -2 -17 -7 -28 -7 -32
0 -4 5 -12 6 -18 2 -13 -8 -22 -9 -130 -17 -43 -3 -88 -11 -99 -17 -12 -7 -18
-7 -14 -1 3 6 -12 13 -36 17 -43 7 -71 22 -64 34 2 3 -2 12 -10 18 -8 8 -15 9
-19 3 -3 -6 -11 -10 -16 -10 -6 0 -8 4 -5 9 3 5 -14 9 -38 8 -36 0 -43 -3 -38
-16 4 -12 1 -12 -13 3 -18 18 -19 18 -25 0 -6 -17 -7 -17 -13 0 -6 16 -9 16
-36 -3 -16 -12 -36 -18 -45 -15 -8 3 -23 -1 -32 -10 -12 -12 -31 -16 -75 -14
-32 2 -59 6 -59 11 0 4 -62 6 -138 4 -95 -2 -148 1 -168 10 -16 6 -22 13 -14
13 8 1 2 6 -15 11 -16 5 -110 13 -207 18 -97 6 -186 15 -197 20 -26 15 -31 32
-36 142 -6 117 -13 149 -30 149 -16 0 -9 30 9 42 7 5 5 8 -4 8 -13 0 -13 1 0
10 13 9 13 11 0 20 -13 8 -13 10 0 10 12 0 11 3 -2 17 -16 15 -16 17 0 29 16
13 16 13 -1 14 -14 0 -16 4 -8 18 5 10 6 24 1 31 -4 8 -7 36 -6 62 1 27 -2 49
-7 49 -6 0 -8 3 -4 6 3 3 1 18 -4 32 -6 16 -6 29 0 35 7 7 7 17 0 30 -7 12 -7
23 -1 29 5 5 6 24 2 43 -5 21 -3 38 4 46 8 9 7 11 -7 6 -9 -4 -17 -2 -17 3 0
6 4 10 9 10 8 0 6 52 -4 79 -4 9 1 12 14 8 14 -3 17 0 14 14 -5 19 -18 25 -26
12 -2 -5 -2 -2 0 5 1 8 3 23 3 33 0 11 4 18 9 15 5 -4 5 10 1 31 -5 20 -6 41
-4 45 3 5 1 15 -6 23 -8 9 -8 20 -2 32 5 10 9 37 8 60 0 22 2 39 6 36 5 -2 8
3 8 12 0 8 -7 18 -15 21 -8 4 -15 15 -15 26 0 10 3 17 7 15 13 -8 15 71 3 93
-8 15 -8 20 2 21 10 0 10 2 1 6 -18 7 -16 43 2 43 8 0 15 5 15 11 0 6 -6 9
-13 6 -10 -4 -13 8 -14 47 0 36 2 44 7 26 6 -21 8 -22 14 -8 4 9 3 26 -4 37
-8 16 -8 21 2 21 8 1 5 7 -7 17 -16 13 -17 15 -2 10 9 -4 17 -2 17 3 0 6 -8
10 -17 10 -15 0 -16 2 -3 10 13 9 13 10 0 10 -12 0 -12 2 -1 9 10 6 10 13 2
29 -9 17 -8 19 7 15 16 -4 18 3 16 62 -2 37 -9 74 -16 83 -7 9 -8 13 -2 9 14
-8 27 20 17 36 -7 12 -7 176 0 183 3 3 1 22 -4 42 -6 28 -4 41 8 54 9 10 11
18 6 18 -19 0 -23 64 -6 77 13 10 14 15 3 28 -7 8 -10 18 -7 21 3 3 2 17 -3
30 -8 19 -6 22 7 17 11 -5 14 -1 9 13 -12 38 -15 117 -7 155 6 24 5 39 -1 39
-5 0 -6 10 -2 22 4 12 8 74 9 138 1 63 6 286 10 495 4 209 10 381 14 383 4 1
5 18 3 37 -4 37 12 47 36 23 21 -21 13 7 -8 30 -25 26 -25 31 -2 25 10 -2 24
3 32 12 11 13 10 15 -6 9 -18 -5 -18 -5 -1 9 18 15 24 32 7 22 -5 -3 -7 0 -4
9 3 8 18 16 32 18 23 3 27 8 28 39 1 42 10 59 30 59 8 0 12 4 9 10 -9 14 13
50 31 50 19 0 44 23 45 42 0 10 2 10 6 1 2 -7 12 -13 21 -12 10 0 12 3 5 6
-20 7 26 63 46 56 13 -5 14 -3 4 8 -17 18 -16 39 2 39 8 0 13 -6 11 -12 -1 -7
-1 -10 1 -5 3 4 10 4 16 0 7 -4 5 2 -3 12 -11 14 -12 19 -2 22 6 3 12 10 12
17 0 9 9 12 25 8 14 -2 22 -9 19 -16 -3 -6 1 -3 10 8 9 10 20 15 27 10 8 -5
11 -2 7 7 -3 9 2 26 12 39 16 22 21 23 45 12 27 -13 50 -8 40 9 -4 5 4 5 19
-1 15 -5 26 -6 26 0 0 4 -8 11 -17 13 -13 3 -12 5 5 6 13 0 21 4 19 9 -2 4 11
23 30 42 18 19 33 29 33 22 0 -6 7 -9 15 -6 12 5 13 9 4 21 -10 11 -8 18 9 36
13 12 22 16 22 9 0 -7 -7 -15 -15 -18 -8 -4 -15 -11 -15 -17 0 -6 10 -1 23 11
13 12 26 19 30 16 3 -3 3 5 0 18 -3 16 -2 19 5 9 6 -8 12 -9 16 -3 3 6 2 13
-4 17 -17 11 -11 20 16 21 19 2 24 -2 19 -14 -5 -13 -2 -12 15 3 15 13 17 21
8 26 -9 6 -9 11 0 22 7 8 15 36 18 63 8 56 19 74 45 74 18 0 23 10 20 37 -3
22 18 51 39 55 18 3 19 5 6 30 -12 23 -12 29 0 39 8 6 14 16 14 21 0 17 30 39
42 32 10 -6 11 -4 1 7 -18 18 -16 84 1 99 11 8 12 18 6 34 -6 17 -4 25 11 34
10 7 19 23 19 37 0 14 5 25 10 25 6 0 10 6 10 13 0 7 11 21 25 31 14 10 25 29
25 40 0 12 5 27 12 34 9 9 8 12 -5 12 -10 0 -14 5 -11 15 3 8 9 14 12 13 4 -1
19 2 33 6 22 6 27 13 25 39 -1 22 3 31 12 29 14 -3 59 47 54 60 -1 5 2 8 8 8
5 0 20 11 34 25 21 21 27 23 38 11 11 -11 16 -11 26 1 10 11 9 13 -7 13 -11 0
-23 5 -27 11 -4 8 1 9 16 4 18 -6 22 -4 17 7 -3 8 -2 20 2 27 9 14 37 5 45
-15 3 -8 2 -12 -3 -9 -5 3 -12 1 -15 -4 -7 -10 19 -23 28 -14 3 4 6 14 6 24 0
18 19 29 60 36 13 2 27 6 29 9 2 2 -146 5 -330 6 -319 3 -312 3 156 8 270 3
501 4 515 3 14 -1 702 -3 1530 -5z m-2863 -4 c-3 -3 -12 -4 -19 -1 -8 3 -5 6
6 6 11 1 17 -2 13 -5z m4421 -1 c-10 -2 -26 -2 -35 0 -10 3 -2 5 17 5 19 0 27
-2 18 -5z m69 1 c-3 -3 -12 -4 -19 -1 -8 3 -5 6 6 6 11 1 17 -2 13 -5z m-1260
-27 c4 -5 -1 -5 -12 -1 -17 7 -18 6 -5 -8 13 -13 16 -13 30 5 12 14 23 18 38
13 13 -5 20 -12 16 -19 -5 -9 -4 -9 6 0 7 6 19 9 28 6 11 -5 13 -2 7 6 -5 10
1 12 28 8 19 -2 40 -8 47 -12 7 -4 16 -2 20 5 4 7 13 9 19 6 6 -4 8 -12 5 -18
-5 -7 -2 -8 6 -3 9 6 10 2 5 -16 -7 -23 -7 -23 8 -4 9 11 11 22 6 23 -5 2 -9
8 -9 12 0 12 43 8 52 -5 5 -6 8 -6 8 3 0 6 5 12 11 12 6 0 9 -7 5 -15 -9 -24
3 -43 24 -38 10 3 17 10 14 16 -3 8 14 12 51 13 46 0 55 -2 55 -17 0 -9 -6
-20 -12 -22 -7 -3 -4 -6 7 -6 11 0 26 3 34 8 8 5 21 5 30 1 16 -9 151 -42 181
-45 8 -1 24 -4 35 -7 11 -4 32 -9 48 -12 25 -6 39 -26 17 -26 -5 0 -37 -20
-72 -44 -57 -39 -129 -82 -243 -146 -22 -12 -80 -38 -130 -56 -49 -19 -99 -38
-110 -43 -38 -17 -55 -20 -55 -11 0 6 8 10 19 10 10 0 24 7 31 15 7 8 21 15
31 15 42 0 201 72 297 135 61 40 62 40 62 87 0 26 -4 50 -10 53 -14 9 -576 9
-704 0 -66 -5 -103 -11 -95 -16 10 -6 11 -9 2 -9 -7 0 -13 -7 -13 -15 0 -8 -4
-15 -10 -15 -5 0 -10 -12 -10 -27 0 -22 -2 -25 -10 -13 -11 18 -10 26 -18
-129 l-7 -123 135 6 c142 6 243 18 273 31 10 4 17 3 17 -3 0 -12 -28 -19 -96
-27 -27 -3 -82 -10 -121 -17 -64 -9 -259 -6 -368 6 -198 23 -245 31 -245 42 0
7 4 15 9 18 8 5 14 42 27 171 3 28 9 54 14 58 4 5 5 27 3 49 l-6 40 54 -2 c30
-1 56 -1 59 0 3 1 19 3 35 4 17 1 35 5 42 9 6 4 18 4 27 1 22 -8 68 4 61 16
-3 6 -1 10 4 10 6 0 11 -4 11 -8 0 -10 97 -15 111 -6 6 4 5 11 -2 21 -10 12
-10 16 2 24 22 14 26 11 24 -21 -1 -16 2 -27 7 -24 4 3 8 12 8 21 0 10 6 13
16 9 21 -8 57 12 50 29 -3 8 0 15 7 18 19 6 75 2 84 -6z m335 -19 c-8 -8 -9
-4 -5 13 4 13 8 18 11 10 2 -7 -1 -18 -6 -23z m-815 -9 c0 -21 -3 -26 -9 -16
-4 9 -5 22 -2 31 9 23 11 20 11 -15z m83 -9 c0 -5 -5 -10 -11 -10 -5 0 -7 5
-4 10 3 6 8 10 11 10 2 0 4 -4 4 -10z m56 -6 c-3 -9 -6 -18 -6 -20 0 -2 -7 -4
-15 -4 -13 0 -13 3 -3 20 15 24 33 27 24 4z m-359 -20 c-3 -3 -12 -4 -19 -1
-8 3 -5 6 6 6 11 1 17 -2 13 -5z m283 -3 c0 -5 -9 -7 -20 -4 -11 3 -20 7 -20
9 0 2 9 4 20 4 11 0 20 -4 20 -9z m-190 -31 c0 -5 -2 -10 -4 -10 -3 0 -8 5
-11 10 -3 6 -1 10 4 10 6 0 11 -4 11 -10z m1796 -51 c-3 -17 -6 -38 -6 -46 0
-10 -6 -12 -20 -8 -12 4 -20 2 -20 -5 0 -6 5 -8 10 -5 6 3 10 1 10 -5 0 -6 4
-9 9 -5 15 9 18 -145 3 -157 -9 -8 -9 -14 -2 -23 6 -8 7 -16 2 -19 -7 -4 -8
-38 -2 -56 5 -12 -2 -251 -9 -307 -4 -33 -4 -69 0 -79 6 -19 -3 -47 -25 -71
-6 -7 -27 -34 -46 -60 -19 -26 -50 -63 -69 -82 -19 -20 -51 -57 -70 -82 -284
-364 -496 -555 -700 -631 -179 -66 -207 -71 -381 -71 -145 0 -179 3 -280 27
-134 32 -225 49 -259 47 l-24 -1 7 268 c3 147 10 319 14 382 6 104 7 109 12
55 l6 -60 7 50 c4 28 12 77 17 110 6 33 12 76 15 95 24 166 39 226 61 251 l24
25 98 -22 c144 -33 277 -47 391 -41 56 4 105 8 109 11 5 3 21 7 36 10 39 7
145 58 233 111 41 25 77 45 81 45 4 1 43 23 87 50 119 73 245 144 285 160 19
8 37 17 40 21 7 9 71 48 93 55 9 4 17 10 17 15 0 5 9 9 20 9 11 0 20 5 20 10
0 6 12 10 26 10 15 0 23 4 19 11 -13 20 28 36 98 38 l70 2 -7 -32z m169 -589
c3 -6 -2 -13 -12 -16 -10 -3 -26 -10 -35 -15 -25 -13 -22 -1 5 22 25 21 33 23
42 9z m83 -33 c5 -24 -15 -21 -28 4 -10 18 -9 20 7 17 10 -2 19 -11 21 -21z
m-23 -47 c-3 -5 -1 -10 4 -10 6 0 11 -5 11 -11 0 -8 -5 -8 -15 1 -13 11 -12
30 1 30 3 0 2 -4 -1 -10z m7 -49 c6 10 7 6 2 -11 -4 -14 -6 -44 -5 -67 0 -23
-3 -44 -9 -48 -5 -3 -6 -13 -3 -22 4 -11 3 -14 -5 -9 -12 7 -16 -5 -13 -31 1
-7 -3 -13 -9 -13 -5 0 -10 8 -11 18 0 9 -6 3 -12 -15 -7 -17 -16 -35 -21 -40
-5 -5 -6 -3 -2 4 4 7 2 21 -3 30 -8 14 -10 9 -9 -25 1 -28 4 -38 10 -30 6 9 8
2 6 -18 -1 -17 3 -38 10 -47 9 -10 10 -17 2 -22 -5 -3 -10 -1 -10 4 0 6 -5 11
-12 11 -6 0 -1 -11 11 -24 16 -17 19 -26 11 -31 -7 -4 -16 -1 -21 6 -6 10 -8
7 -6 -9 0 -12 5 -22 9 -22 4 0 8 -16 10 -36 l3 -36 19 21 c17 18 17 21 3 15
-22 -8 -22 5 1 23 10 9 11 12 2 7 -12 -6 -13 -4 -2 7 6 7 12 23 12 35 0 13 5
26 12 30 8 5 9 -5 3 -37 -4 -24 -7 -52 -7 -61 0 -10 -4 -18 -9 -18 -6 0 -7 -4
-4 -10 3 -5 1 -19 -6 -31 -10 -19 -9 -21 5 -16 9 4 16 2 16 -4 0 -5 -6 -12
-14 -15 -11 -4 -14 -21 -13 -64 2 -46 -1 -56 -12 -52 -9 3 -12 1 -7 -6 3 -6 0
-15 -9 -19 -13 -7 -13 -13 -3 -36 7 -15 17 -27 22 -27 5 0 4 -6 -2 -12 -5 -8
-6 -22 -1 -33 5 -14 8 -16 9 -5 2 8 2 18 1 23 0 4 3 7 9 7 6 0 10 -6 10 -14 0
-7 7 -19 15 -26 15 -13 21 -2 8 16 -5 5 -1 1 9 -8 9 -10 21 -18 27 -18 6 0 11
-9 11 -19 0 -11 8 -22 18 -24 9 -3 3 -5 -15 -6 -17 0 -35 -6 -39 -13 -4 -7 -3
-8 5 -4 6 4 14 0 17 -8 5 -14 8 -14 21 -1 8 9 20 12 26 8 8 -5 7 -9 -4 -11
-11 -2 -15 -10 -12 -22 4 -13 -1 -20 -19 -23 -18 -3 -16 -5 10 -6 17 0 32 -6
32 -12 0 -6 -8 -9 -18 -7 -11 3 -30 -1 -43 -9 -23 -13 -23 -14 -1 -8 20 6 22
3 22 -35 0 -38 -2 -40 -24 -34 -13 3 -27 1 -30 -5 -4 -7 1 -11 13 -11 12 0 21
-2 21 -4 0 -2 3 -13 7 -23 5 -15 4 -16 -8 -6 -8 6 -26 9 -41 6 -30 -6 -36 -18
-15 -27 6 -3 2 -3 -10 0 -28 7 -29 -1 -3 -33 18 -23 19 -50 1 -39 -4 3 -13
-17 -20 -44 -7 -28 -17 -50 -22 -50 -13 0 -4 -119 12 -160 10 -26 19 -34 33
-32 10 2 16 0 12 -6 -6 -11 15 -22 43 -22 10 0 17 -8 17 -20 0 -13 -7 -20 -21
-20 -18 -1 -19 -1 -2 -11 9 -5 17 -16 17 -24 0 -8 8 -19 18 -24 24 -14 6 -14
-21 0 -12 7 -19 8 -15 4 4 -5 3 -14 -3 -22 -9 -9 -8 -13 0 -13 6 0 11 6 12 13
0 6 5 1 10 -13 7 -17 7 -26 0 -28 -6 -2 -11 -10 -11 -18 0 -8 -7 -17 -15 -20
-8 -4 -13 -10 -10 -14 7 -11 -5 -41 -14 -36 -4 3 -7 -3 -8 -12 -1 -9 -29 -66
-62 -126 -34 -60 -61 -110 -61 -112 0 -2 -20 -36 -43 -76 -24 -40 -61 -103
-81 -141 -43 -77 -252 -391 -304 -454 -19 -24 -38 -40 -43 -37 -5 3 -9 -2 -9
-11 0 -9 -4 -13 -10 -10 -5 3 -20 -1 -34 -10 -13 -9 -30 -15 -38 -14 -7 1 -20
0 -28 -4 -48 -18 -80 -24 -106 -21 -16 2 -49 6 -74 8 -25 3 -56 9 -70 13 -14
4 -112 7 -217 8 -163 0 -193 -2 -193 -14 0 -12 -2 -12 -12 1 -9 10 -45 19
-108 27 -52 6 -106 13 -120 16 -14 3 -50 8 -80 11 -30 3 -62 8 -70 11 -28 11
-40 11 -45 2 -4 -5 -15 0 -27 11 -12 11 -24 17 -28 15 -4 -3 -27 4 -51 14 -43
19 -87 27 -224 41 -68 7 -69 7 -20 10 28 1 57 2 65 1 10 0 11 1 3 5 -7 3 -13
12 -13 20 0 7 -12 20 -27 28 -49 25 -73 59 -69 94 2 18 10 40 18 50 27 30 26
46 -1 59 l-26 11 31 1 c25 1 37 9 58 42 33 48 55 108 48 128 -2 8 0 11 6 7 13
-8 28 462 15 483 -25 40 -33 22 -34 -76 -1 -54 -4 -138 -8 -188 -6 -88 -6 -86
-13 80 -5 106 -4 173 2 179 14 14 12 70 -2 85 -10 11 -10 14 0 18 8 3 12 32
12 96 0 49 3 88 6 84 3 -3 5 -51 5 -107 -1 -78 3 -108 16 -133 18 -32 18 -31
25 153 9 235 17 300 13 109 -2 -80 1 -152 6 -160 6 -10 9 -6 10 16 0 17 2 37
4 45 2 8 8 36 14 63 6 26 14 64 17 85 3 20 7 45 10 54 13 45 14 71 2 86 -11
13 -11 14 2 7 8 -4 28 -17 43 -28 39 -27 196 -93 281 -117 101 -30 297 -38
392 -17 104 24 133 40 194 108 30 34 68 74 84 88 67 62 240 236 356 359 69 73
152 161 185 196 74 76 133 146 225 262 25 31 58 71 75 87 16 17 28 39 27 49
-2 11 3 18 12 18 9 0 16 7 16 15 0 8 6 15 14 15 8 0 19 15 26 33 9 23 14 28
18 17 4 -8 18 -16 32 -17 14 -1 17 1 8 3 -13 4 -16 12 -11 37 5 31 5 31 -10
12 -9 -11 -17 -16 -17 -12 0 5 9 20 20 34 11 14 21 33 21 42 1 12 3 11 6 -3 4
-15 7 -16 15 -5z m-4352 -96 c0 -8 -4 -15 -10 -15 -5 0 -10 7 -10 15 0 8 5 15
10 15 6 0 10 -7 10 -15z m2267 -37 c-3 -8 -6 -5 -6 6 -1 11 2 17 5 13 3 -3 4
-12 1 -19z m2073 -83 c0 -15 -5 -24 -12 -22 -8 1 -14 -11 -16 -28 -3 -28 -2
-29 11 -11 13 18 14 18 12 -5 -2 -31 -31 -37 -38 -8 -7 25 8 69 23 69 5 0 10
7 10 15 0 8 2 15 5 15 3 0 5 -11 5 -25z m-4914 -340 c-8 -8 -18 -15 -22 -15
-3 0 -1 7 6 15 7 8 17 15 22 15 5 0 3 -7 -6 -15z m4944 -22 c0 -5 -16 -9 -35
-9 -19 -1 -35 3 -35 7 0 5 16 9 35 9 19 0 35 -3 35 -7z m57 1 c-3 -3 -12 -4
-19 -1 -8 3 -5 6 6 6 11 1 17 -2 13 -5z m-5160 -161 c-3 -3 -11 -2 -17 2 -9 6
-9 10 1 16 14 8 27 -7 16 -18z m40 10 c-4 -3 -2 -12 4 -19 12 -15 -2 -26 -19
-15 -14 9 -6 41 11 41 6 0 7 -3 4 -7z m4998 -3 c3 -6 -1 -7 -9 -4 -18 7 -21
14 -7 14 6 0 13 -4 16 -10z m145 -220 c0 -5 -5 -10 -11 -10 -5 0 -7 5 -4 10 3
6 8 10 11 10 2 0 4 -4 4 -10z m-53 -72 c-3 -7 -5 -2 -5 12 0 14 2 19 5 13 2
-7 2 -19 0 -25z m-2340 -65 c-3 -10 -5 -2 -5 17 0 19 2 27 5 18 2 -10 2 -26 0
-35z m173 -23 c-8 -34 -8 -33 -9 15 0 34 3 45 9 35 4 -9 5 -31 0 -50z m47 -97
c-3 -10 -5 -4 -5 12 0 17 2 24 5 18 2 -7 2 -21 0 -30z m-3150 -215 c-3 -7 -5
-2 -5 12 0 14 2 19 5 13 2 -7 2 -19 0 -25z m0 -60 c-3 -7 -5 -2 -5 12 0 14 2
19 5 13 2 -7 2 -19 0 -25z m5393 16 c0 -7 -27 -34 -34 -34 -3 0 -6 9 -6 20 0
13 7 20 20 20 11 0 20 -3 20 -6z m97 -49 c3 -9 3 -19 -1 -22 -8 -9 -37 18 -30
28 8 14 24 11 31 -6z m-5490 -2167 c-1 -392 -2 -72 -2 712 0 784 1 1104 2 713
2 -392 2 -1034 0 -1425z m2730 2010 c-3 -8 -6 -5 -6 6 -1 11 2 17 5 13 3 -3 4
-12 1 -19z m2740 -20 c-3 -8 -6 -5 -6 6 -1 11 2 17 5 13 3 -3 4 -12 1 -19z
m-2728 -145 c0 -93 -3 -131 -9 -116 -8 20 -2 253 7 253 1 0 3 -62 2 -137z
m2715 -45 c7 -5 4 -8 -6 -8 -12 0 -18 7 -17 23 0 15 2 17 6 7 3 -8 11 -18 17
-22z m-24 -88 c0 -5 -2 -10 -4 -10 -3 0 -8 5 -11 10 -3 6 -1 10 4 10 6 0 11
-4 11 -10z m-2353 -82 c-3 -8 -6 -5 -6 6 -1 11 2 17 5 13 3 -3 4 -12 1 -19z
m2243 2 c0 -5 -4 -10 -10 -10 -5 0 -10 5 -10 10 0 6 5 10 10 10 6 0 10 -4 10
-10z m-30 -62 c0 -4 -4 -8 -9 -8 -6 0 -12 4 -15 8 -3 5 1 9 9 9 8 0 15 -4 15
-9z m-10 -63 c-5 -6 -10 -26 -12 -45 -2 -26 -7 -35 -20 -34 -12 1 -18 -5 -18
-18 0 -16 3 -18 14 -9 12 10 14 6 14 -24 0 -19 -5 -35 -10 -35 -6 0 -8 -9 -5
-20 3 -11 1 -20 -4 -20 -5 0 -9 7 -9 15 0 21 -19 19 -19 -2 -2 -42 -8 -73 -16
-80 -4 -5 -5 -3 -1 4 11 20 -16 27 -31 7 -11 -15 -11 -19 1 -26 9 -5 12 -16 8
-30 -4 -15 -2 -19 7 -13 25 15 3 -59 -25 -83 -14 -13 -24 -26 -21 -29 3 -3 13
2 22 11 23 22 32 20 12 -2 -10 -10 -14 -22 -10 -26 4 -4 0 -4 -9 -1 -11 5 -17
-1 -21 -22 -3 -16 0 -31 6 -35 8 -5 13 1 15 17 2 14 8 25 14 25 7 0 8 -12 4
-32 -4 -18 -9 -44 -12 -58 -7 -40 -13 -52 -23 -45 -5 3 -12 1 -16 -5 -3 -5 -2
-10 4 -10 6 0 6 -11 0 -32 -13 -47 -10 -58 6 -23 l13 30 1 -29 c1 -28 2 -28
14 -11 9 11 16 14 21 7 3 -6 2 -13 -4 -17 -5 -3 -10 -22 -10 -41 0 -19 -4 -34
-9 -34 -5 0 -8 14 -7 30 1 17 -1 30 -6 30 -4 0 -8 -6 -8 -12 0 -7 -3 -24 -7
-37 -4 -16 -2 -22 4 -18 6 4 19 -1 30 -11 10 -9 14 -14 8 -10 -18 12 -25 -1
-15 -28 6 -14 6 -26 0 -29 -6 -4 -10 -16 -9 -28 0 -12 3 -16 6 -9 10 26 21 10
12 -20 -10 -35 -3 -51 11 -28 7 10 10 11 10 3 0 -7 9 -13 21 -13 11 0 17 5 14
10 -3 6 1 10 11 10 13 0 14 -3 5 -13 -6 -8 -7 -18 -3 -22 4 -5 -1 -5 -10 -2
-12 4 -18 1 -18 -8 0 -8 -6 -15 -12 -15 -7 0 -2 -9 11 -19 l23 -18 -43 -1
c-32 -1 -40 1 -29 8 8 5 10 10 3 10 -6 0 -9 9 -6 23 4 19 3 20 -7 4 -6 -9 -9
-21 -6 -26 3 -5 -1 -11 -9 -15 -8 -3 -15 -11 -15 -18 0 -10 2 -10 9 1 5 7 13
11 19 7 5 -3 32 -6 58 -7 44 -2 107 -17 77 -18 -7 -1 -10 -9 -7 -18 5 -17 5
-17 -6 0 -13 19 -45 24 -36 5 3 -7 9 -21 12 -30 5 -13 13 -16 34 -12 16 4 31
1 35 -6 4 -7 -1 -10 -17 -9 -43 4 -69 -1 -63 -11 4 -6 11 -8 16 -5 5 4 9 1 9
-5 0 -8 -10 -10 -27 -6 -26 5 -27 5 -5 -6 12 -6 22 -15 22 -21 0 -5 7 -7 15
-3 10 3 15 -1 16 -12 1 -15 2 -15 6 -1 2 10 17 18 38 21 18 2 31 0 29 -4 -3
-4 -13 -8 -24 -8 -25 0 -33 -28 -13 -48 9 -9 20 -18 25 -18 4 -1 10 -2 13 -3
3 0 0 -7 -7 -15 -11 -12 -16 -12 -32 2 -18 16 -18 16 -8 -4 10 -19 8 -23 -10
-27 -19 -5 -19 -7 -4 -22 9 -9 14 -20 11 -25 -3 -5 4 -11 15 -15 11 -3 20 -11
20 -16 0 -6 4 -8 9 -4 5 3 13 0 16 -6 5 -7 -1 -10 -16 -9 -48 4 -71 0 -66 -12
2 -7 10 -13 18 -13 20 0 44 -56 27 -66 -7 -4 -16 -3 -21 4 -6 8 -7 7 -4 -5 3
-9 3 -19 -1 -23 -4 -4 -7 -23 -7 -43 0 -30 -4 -36 -17 -34 -12 2 -16 -2 -12
-13 5 -11 2 -14 -12 -8 -11 4 -15 3 -11 -4 4 -6 1 -14 -5 -16 -8 -3 -6 -6 5
-6 17 -1 24 -17 8 -23 -13 -5 -24 -78 -11 -78 6 0 9 4 6 9 -7 11 22 36 31 28
3 -4 -1 -9 -9 -12 -10 -4 -13 -16 -11 -38 3 -18 1 -27 -4 -22 -16 20 -30 13
-42 -21 -11 -30 -11 -38 3 -52 10 -12 12 -22 6 -32 -5 -8 -10 -10 -10 -5 -1
21 -20 -21 -20 -44 0 -13 -3 -21 -6 -18 -8 7 -11 33 -13 96 -2 76 -12 38 -12
-47 l0 -81 -25 9 c-17 7 -23 7 -19 0 3 -6 -4 -11 -17 -11 l-23 -2 23 -4 c27
-5 29 -23 2 -30 -11 -3 -20 -10 -20 -15 0 -5 -4 -6 -10 -3 -5 3 -10 -1 -10
-10 0 -10 5 -14 13 -10 6 4 2 -2 -11 -13 -12 -11 -28 -22 -35 -25 -9 -3 -9 -7
-1 -18 9 -11 2 -24 -33 -59 -24 -25 -41 -36 -37 -26 5 13 4 17 -4 12 -19 -12
-14 -37 8 -43 19 -5 20 -7 4 -24 -15 -17 -44 -16 -44 2 0 4 7 6 15 3 8 -4 15
-1 15 5 0 20 -38 12 -43 -10 -4 -14 -11 -20 -20 -16 -9 3 -19 -4 -26 -20 -9
-21 -14 -23 -26 -13 -12 10 -15 9 -15 -8 0 -11 7 -23 16 -26 27 -10 5 -26 -39
-27 -23 -1 -35 -3 -25 -6 21 -5 31 -30 16 -39 -7 -4 -8 -3 -4 4 9 16 -7 15
-22 0 -9 -9 -12 -5 -12 21 0 19 -4 30 -10 26 -6 -3 -7 -17 -4 -30 4 -17 1 -25
-13 -28 -58 -17 -676 -27 -888 -14 -66 4 -169 10 -230 13 -60 3 -119 8 -130
11 -19 6 -63 11 -110 14 -11 1 -14 3 -7 6 6 3 12 9 12 15 0 6 -7 7 -16 4 -12
-4 -15 -2 -10 9 3 8 1 15 -4 15 -6 0 -10 -6 -10 -12 0 -7 -10 2 -21 20 -12 17
-24 32 -28 32 -4 0 -8 6 -8 13 0 22 -35 67 -52 66 -13 -1 -12 -2 2 -6 11 -3
16 -11 13 -19 -3 -7 0 -13 6 -11 6 1 13 -4 15 -11 4 -11 1 -12 -16 -3 -11 7
-21 8 -21 4 0 -10 -25 16 -26 28 -1 5 -2 14 -3 20 0 5 -6 7 -12 4 -6 -4 -9 -1
-7 6 5 21 -24 99 -36 99 -7 0 -6 3 1 8 18 12 23 69 7 89 -19 25 -17 33 9 34
21 0 21 1 -3 10 -20 8 -22 12 -10 19 8 5 16 17 17 27 7 65 11 78 21 76 8 -2
10 8 7 30 -3 17 -3 26 1 20 10 -22 37 -16 31 7 -3 10 0 21 7 24 8 3 7 7 -3 14
-10 7 -10 11 -1 17 6 4 9 13 7 19 -3 7 -1 19 4 27 8 12 10 12 19 -1 5 -8 10
-11 10 -6 0 6 -10 20 -22 33 -16 17 -18 23 -7 23 26 0 68 24 73 42 4 19 46 25
46 8 0 -5 5 -10 12 -10 9 0 9 3 0 12 -7 7 -12 17 -12 23 0 18 43 12 63 -9 16
-18 17 -18 17 -1 0 15 2 14 18 -4 9 -12 26 -24 37 -26 11 -2 21 -4 23 -4 1 -1
3 -1 5 -1 1 0 25 -6 52 -15 144 -44 300 -48 448 -10 69 18 216 92 224 113 4 8
20 29 37 47 45 48 75 84 115 140 19 28 52 71 73 96 21 26 38 52 38 58 0 7 4
10 9 7 4 -3 17 11 27 32 10 20 34 51 52 68 17 17 32 36 32 43 0 6 6 11 13 11
6 0 13 11 13 26 1 15 16 37 38 56 20 17 34 34 31 38 -2 4 4 15 15 25 11 10 20
14 20 9 0 -5 8 6 16 24 9 17 23 32 30 32 8 0 14 9 14 20 0 13 10 24 25 30 16
6 23 15 20 29 -2 12 3 21 16 24 13 3 19 14 19 31 0 15 7 29 15 32 14 6 65 98
65 119 0 6 9 17 20 25 10 8 22 26 25 41 4 15 13 33 21 40 9 7 24 30 35 51 11
22 24 36 30 32 7 -4 9 1 5 13 -8 24 10 77 23 68 5 -3 16 4 24 15 7 11 16 17
20 14 3 -3 3 3 0 15 -3 14 0 23 11 27 13 5 14 9 5 20 -6 8 -7 14 -2 14 5 0 17
22 27 49 12 35 22 48 32 44 8 -3 14 1 15 8 7 98 5 93 23 77 8 -7 10 -17 6 -23z
m-5250 -208 c0 -5 -4 -5 -10 -2 -5 3 -10 14 -10 23 0 15 2 15 10 2 5 -8 10
-19 10 -23z m-2 -37 c-7 -10 -14 -17 -17 -15 -4 4 18 35 25 35 2 0 -1 -9 -8
-20z m5216 -5 c-4 -8 -10 -12 -15 -9 -11 6 -2 24 11 24 5 0 7 -7 4 -15z m-15
-49 c-8 -6 -13 -20 -12 -31 l3 -20 -9 20 c-10 24 5 59 21 49 8 -5 7 -10 -3
-18z m4 -84 c-4 -10 -8 -10 -13 -2 -4 6 -10 -11 -13 -39 -8 -68 -28 -104 -23
-41 7 74 16 99 36 97 11 -1 16 -7 13 -15z m-2316 -139 c-2 -16 -4 -3 -4 27 0
30 2 43 4 28 2 -16 2 -40 0 -55z m2307 32 c-4 -8 -8 -15 -10 -15 -2 0 -4 7 -4
15 0 8 4 15 10 15 5 0 7 -7 4 -15z m-30 -72 c-4 -21 -10 -40 -13 -43 -4 -3 -7
-16 -6 -29 0 -13 -6 -26 -14 -29 -9 -3 -11 1 -7 14 3 11 7 30 10 44 4 27 27
80 33 80 2 0 1 -17 -3 -37z m-5167 -85 c-3 -7 -5 -2 -5 12 0 14 2 19 5 13 2
-7 2 -19 0 -25z m5163 -202 c0 -8 -4 -18 -10 -21 -5 -3 -10 3 -10 14 0 12 5
21 10 21 6 0 10 -6 10 -14z m7 -61 c-4 -8 -11 -15 -17 -15 -6 0 -6 7 2 20 14
22 24 19 15 -5z m71 -84 c-7 -11 -16 -17 -22 -14 -6 4 -7 -1 -2 -13 6 -16 5
-17 -6 -6 -11 11 -9 16 12 32 31 24 33 24 18 1z m202 9 c0 -5 -5 -10 -11 -10
-5 0 -7 5 -4 10 3 6 8 10 11 10 2 0 4 -4 4 -10z m-2188 -17 c24 -9 45 -20 48
-23 3 -4 22 -13 43 -21 20 -7 37 -17 37 -22 0 -5 -8 -6 -17 -2 -35 13 -186 55
-199 55 -17 0 -18 17 -1 23 23 10 46 7 89 -10z m2038 -47 c0 -2 -7 -6 -15 -10
-8 -3 -15 -1 -15 4 0 6 7 10 15 10 8 0 15 -2 15 -4z m37 -18 c-3 -8 -6 -5 -6
6 -1 11 2 17 5 13 3 -3 4 -12 1 -19z m-1674 -55 c-7 -2 -19 -2 -25 0 -7 3 -2
5 12 5 14 0 19 -2 13 -5z m144 1 c-3 -3 -12 -4 -19 -1 -8 3 -5 6 6 6 11 1 17
-2 13 -5z m1473 -34 c0 -5 -7 -7 -15 -4 -8 4 -15 8 -15 10 0 2 7 4 15 4 8 0
15 -4 15 -10z m28 -15 c-3 -3 -9 2 -12 12 -6 14 -5 15 5 6 7 -7 10 -15 7 -18z
m27 -255 c3 -5 -1 -10 -10 -10 -9 0 -13 5 -10 10 3 6 8 10 10 10 2 0 7 -4 10
-10z m-75 -229 c0 -22 -13 -41 -29 -41 -14 1 -14 2 1 11 10 5 15 16 12 24 -4
8 -1 15 5 15 6 0 11 -4 11 -9z m50 -1 c0 -5 -10 -10 -22 -10 -19 0 -20 2 -8
10 19 13 30 13 30 0z m-95 -180 c-3 -5 -12 -10 -18 -10 -7 0 -6 4 3 10 19 12
23 12 15 0z m313 -17 c-5 -25 -28 -28 -28 -4 0 12 6 21 16 21 9 0 14 -7 12
-17z m112 -62 c0 -6 -4 -13 -10 -16 -5 -3 -10 1 -10 9 0 9 5 16 10 16 6 0 10
-4 10 -9z m-510 -91 c0 -5 -5 -10 -11 -10 -5 0 -7 5 -4 10 3 6 8 10 11 10 2 0
4 -4 4 -10z m-109 -138 c-6 -2 -8 -9 -5 -14 4 -7 2 -8 -4 -4 -9 5 -8 12 1 27
7 12 13 15 16 7 2 -7 -1 -14 -8 -16z m-131 -147 c-7 -8 -17 -15 -23 -15 -6 0
-2 7 9 15 25 19 30 19 14 0z m-3025 -203 c-3 -7 -5 -18 -5 -23 0 -5 -5 -9 -11
-9 -6 0 -9 7 -5 15 3 8 1 15 -4 15 -6 0 -10 4 -10 9 0 6 9 9 20 8 13 -1 19 -6
15 -15z m-35 -13 c0 -6 -4 -7 -10 -4 -5 3 -10 11 -10 16 0 6 5 7 10 4 6 -3 10
-11 10 -16z"/>
<path d="M2523 5793 c9 -2 23 -2 30 0 6 3 -1 5 -18 5 -16 0 -22 -2 -12 -5z"/>
<path d="M2345 5760 c-3 -5 -1 -10 4 -10 6 0 11 5 11 10 0 6 -2 10 -4 10 -3 0
-8 -4 -11 -10z"/>
<path d="M3895 5750 c-3 -5 -1 -10 4 -10 6 0 11 5 11 10 0 6 -2 10 -4 10 -3 0
-8 -4 -11 -10z"/>
<path d="M2355 5700 c-3 -6 1 -7 9 -4 18 7 21 14 7 14 -6 0 -13 -4 -16 -10z"/>
<path d="M2290 5684 c0 -8 5 -12 10 -9 6 4 8 11 5 16 -9 14 -15 11 -15 -7z"/>
<path d="M3702 5658 c-20 -20 -14 -74 11 -103 l23 -27 -1 60 c0 65 -12 91 -33
70z"/>
<path d="M2527 5652 l-139 -3 4 -92 3 -92 -67 -7 c-90 -9 -107 -15 -119 -46
-9 -24 -5 -421 6 -572 1 -25 6 -137 10 -248 7 -165 6 -205 -5 -212 -7 -4 -119
-7 -249 -5 -265 3 -267 3 -324 -67 -79 -96 -169 -340 -232 -623 -130 -580
-210 -1177 -290 -2155 -14 -180 -20 -255 -30 -420 -12 -214 -15 -250 -24 -365
-11 -146 -6 -384 9 -399 15 -15 2255 -16 2256 -1 0 6 -8 8 -19 7 -19 -4 -19
-3 -4 13 19 19 22 52 6 57 -6 2 -12 20 -13 41 0 20 -4 37 -8 37 -4 0 -5 14 -1
30 5 27 3 30 -13 24 -14 -5 -16 -4 -8 5 11 12 7 71 -5 71 -4 0 -6 14 -5 30 1
17 -1 30 -5 30 -12 0 -35 52 -34 78 0 12 -3 22 -8 22 -4 0 -8 8 -8 18 -1 36
-13 92 -20 92 -4 0 -8 6 -9 13 -2 26 -29 87 -36 80 -4 -4 -4 0 0 10 4 10 1 17
-6 17 -7 0 -10 7 -6 15 3 8 -1 21 -9 29 -8 7 -11 16 -8 19 3 4 -2 18 -11 32
-9 14 -14 25 -12 25 2 0 -5 24 -16 52 -11 29 -26 70 -34 91 -8 21 -28 67 -44
103 -16 36 -32 81 -36 100 -3 19 -10 34 -15 34 -5 0 -9 6 -9 13 1 6 11 0 23
-15 21 -25 24 -26 55 -13 18 8 50 16 72 19 50 5 60 12 61 39 1 20 2 20 8 -3 6
-21 12 -25 42 -23 19 1 46 7 60 12 23 9 22 10 -10 10 -68 2 -22 11 80 17 104
7 129 14 129 40 0 8 5 14 10 14 6 0 11 48 11 123 1 71 4 107 8 87 6 -33 7 -32
13 22 4 31 4 75 2 98 -3 25 -1 40 4 36 6 -3 10 12 9 37 0 57 13 217 22 258 4
19 3 51 -1 73 -5 21 -7 40 -5 43 2 2 21 -35 42 -81 28 -64 43 -86 59 -88 33
-5 47 21 30 54 -8 16 -12 28 -9 28 2 0 -5 23 -16 52 -11 29 -24 70 -29 93 -4
22 -26 90 -48 150 -22 61 -45 124 -51 140 -6 17 -22 68 -36 115 -14 47 -33 99
-41 117 -7 17 -14 38 -14 47 0 9 -4 16 -8 16 -12 0 -31 66 -23 77 3 5 28 10
55 12 27 1 54 7 60 14 8 8 11 63 9 186 -2 96 -1 172 2 169 3 -2 6 -30 6 -61 1
-32 5 -57 9 -57 7 0 15 188 14 328 0 28 2 52 5 52 3 0 6 35 6 78 -1 42 6 183
15 312 10 143 13 242 7 253 -19 40 2 26 33 -21 36 -56 72 -79 89 -58 8 10 1
34 -29 95 -22 45 -40 85 -40 90 0 4 -14 29 -32 55 -30 46 -46 118 -23 110 6
-3 10 15 10 43 1 63 13 267 27 468 15 214 16 317 5 333 -12 16 -3 15 31 -2 15
-7 41 -16 57 -19 17 -4 24 -4 18 -1 -7 3 -13 11 -13 18 0 6 -18 29 -39 50 -35
34 -38 40 -25 54 8 8 12 17 9 21 -7 6 -861 9 -1128 3z m-37 -182 c0 -12 -8
-12 -35 0 -18 8 -17 9 8 9 15 1 27 -3 27 -9z m140 -10 c0 -5 -4 -10 -9 -10 -6
0 -13 5 -16 10 -3 6 1 10 9 10 9 0 16 -4 16 -10z m790 -531 c0 -5 -4 -9 -10
-9 -5 0 -10 7 -10 16 0 8 5 12 10 9 6 -3 10 -10 10 -16z m48 -87 c6 -18 -15
-14 -22 4 -4 10 -1 14 6 12 6 -2 14 -10 16 -16z m52 -95 c0 -5 -4 -5 -10 -2
-5 3 -10 14 -10 23 0 15 2 15 10 2 5 -8 10 -19 10 -23z m24 -33 c9 -3 13 -10
10 -15 -8 -14 -21 -11 -28 6 -6 17 -4 18 18 9z m-240 -1349 c-4 -8 -8 -15 -10
-15 -2 0 -4 7 -4 15 0 8 4 15 10 15 5 0 7 -7 4 -15z"/>
<path d="M3960 5635 c0 -8 4 -15 10 -15 5 0 7 7 4 15 -4 8 -8 15 -10 15 -2 0
-4 -7 -4 -15z"/>
<path d="M2215 5610 c3 -5 8 -10 11 -10 2 0 4 5 4 10 0 6 -5 10 -11 10 -5 0
-7 -4 -4 -10z"/>
<path d="M3676 5463 c-7 -34 -33 -484 -41 -725 l-7 -176 34 -67 33 -68 7 68
c12 120 5 988 -9 992 -6 2 -14 -9 -17 -24z"/>
<path d="M3723 5365 c0 -38 2 -53 4 -32 2 20 2 52 0 70 -2 17 -4 1 -4 -38z"/>
<path d="M3761 5158 c0 -45 3 -57 9 -43 12 28 12 105 0 105 -6 0 -10 -27 -9
-62z"/>
<path d="M3760 5069 c0 -11 4 -18 10 -14 5 3 7 12 3 20 -7 21 -13 19 -13 -6z"/>
<path d="M1635 4576 l-29 -23 31 1 c24 1 29 4 21 14 -10 11 1 17 25 13 5 -1 6
3 2 9 -9 15 -17 13 -50 -14z"/>
<path d="M1480 4519 c0 -11 25 -22 39 -17 6 1 -1 8 -14 15 -14 6 -25 7 -25 2z"/>
<path d="M3742 4510 c0 -14 2 -19 5 -12 2 6 2 18 0 25 -3 6 -5 1 -5 -13z"/>
<path d="M1546 4495 c4 -8 8 -15 10 -15 2 0 4 7 4 15 0 8 -4 15 -10 15 -5 0
-7 -7 -4 -15z"/>
<path d="M1480 4471 c0 -6 4 -13 10 -16 6 -3 7 1 4 9 -7 18 -14 21 -14 7z"/>
<path d="M3741 4464 c0 -11 3 -14 6 -6 3 7 2 16 -1 19 -3 4 -6 -2 -5 -13z"/>
<path d="M1412 4427 c-8 -10 -6 -13 11 -14 12 0 16 1 9 4 -6 3 -10 9 -6 14 8
14 -2 11 -14 -4z"/>
<path d="M3694 4065 c0 -104 2 -146 3 -92 2 54 2 139 0 190 -1 51 -3 7 -3 -98z"/>
<path d="M975 2580 c-3 -5 -1 -10 4 -10 6 0 11 5 11 10 0 6 -2 10 -4 10 -3 0
-8 -4 -11 -10z"/>
<path d="M3664 2090 c0 -63 1 -89 3 -57 2 31 2 83 0 115 -2 31 -3 5 -3 -58z"/>
<path d="M1950 270 c0 -6 7 -10 15 -10 8 0 15 2 15 4 0 2 -7 6 -15 10 -8 3
-15 1 -15 -4z"/>
<path d="M2238 273 c7 -3 16 -2 19 1 4 3 -2 6 -13 5 -11 0 -14 -3 -6 -6z"/>
<path d="M2616 264 c-11 -8 -16 -14 -10 -14 13 0 39 18 34 24 -3 2 -14 -2 -24
-10z"/>
<path d="M2650 262 c0 -12 4 -22 9 -22 10 0 9 26 -2 36 -4 4 -7 -2 -7 -14z"/>
<path d="M5000 5751 c0 -6 5 -13 10 -16 6 -3 10 1 10 9 0 9 -4 16 -10 16 -5 0
-10 -4 -10 -9z"/>
<path d="M5135 5730 c-3 -5 1 -10 10 -10 9 0 13 5 10 10 -3 6 -8 10 -10 10 -2
0 -7 -4 -10 -10z"/>
<path d="M4450 5469 c-8 -12 -20 -27 -26 -33 -6 -6 -9 -17 -6 -25 3 -9 0 -11
-7 -6 -8 4 -11 2 -10 -6 1 -8 -1 -22 -6 -33 -5 -11 -3 -21 5 -26 10 -6 8 -9
-6 -13 -10 -2 2 -5 29 -6 l47 -1 0 85 c0 47 -1 85 -3 85 -1 0 -9 -10 -17 -21z"/>
<path d="M5836 5632 c-3 -6 3 -12 14 -15 11 -3 23 0 27 6 3 7 3 9 -2 5 -4 -4
-14 -3 -21 3 -7 6 -15 6 -18 1z"/>
<path d="M5420 5333 c-25 -15 -50 -34 -57 -42 -7 -9 -13 -13 -13 -9 0 4 -37
-12 -83 -36 -91 -47 -129 -63 -197 -82 -25 -7 -85 -25 -135 -39 -49 -14 -109
-28 -132 -30 -57 -7 -134 -41 -140 -63 -2 -10 -17 -26 -33 -37 -16 -11 -35
-31 -42 -45 -7 -14 -16 -27 -20 -30 -4 -3 -11 -51 -15 -105 l-7 -100 -8 64
c-4 35 -12 69 -18 75 -7 6 -10 7 -9 1 4 -13 -18 -53 -47 -84 -13 -14 -24 -31
-24 -36 0 -6 -18 -28 -40 -50 -21 -21 -42 -51 -45 -66 -4 -16 -11 -31 -16 -34
-5 -4 -9 -14 -9 -24 0 -10 -11 -30 -25 -45 -29 -31 -34 -67 -35 -254 0 -79 -4
-121 -10 -117 -5 3 -10 45 -11 93 l-1 87 -14 -75 c-17 -91 -15 -241 4 -248 7
-2 12 7 13 25 2 26 2 25 8 -6 6 -33 10 -36 66 -52 129 -38 362 -47 475 -19 19
5 47 11 61 14 94 16 266 101 364 179 75 60 295 287 301 311 8 32 0 308 -10
331 -6 16 -6 17 3 5 6 -8 11 -10 11 -4 0 5 -6 16 -12 22 -7 7 -13 29 -14 50
-1 20 -5 53 -8 72 -3 20 4 79 19 145 26 120 33 202 21 253 -7 28 -12 32 -39
32 -18 0 -52 -12 -77 -27z m-883 -660 c-3 -10 -5 -4 -5 12 0 17 2 24 5 18 2
-7 2 -21 0 -30z m-280 -575 c-3 -8 -6 -5 -6 6 -1 11 2 17 5 13 3 -3 4 -12 1
-19z"/>
<path d="M5881 5244 c0 -11 3 -14 6 -6 3 7 2 16 -1 19 -3 4 -6 -2 -5 -13z"/>
<path d="M5542 4499 c1 -17 4 -25 8 -18 7 10 2 49 -5 49 -2 0 -3 -14 -3 -31z"/>
<path d="M6067 4748 c-3 -10 -2 -18 2 -18 3 0 11 8 18 18 9 15 8 19 -2 19 -8
0 -16 -9 -18 -19z"/>
<path d="M6068 4395 c2 -14 6 -25 8 -25 2 0 4 11 4 25 0 14 -4 25 -9 25 -4 0
-6 -11 -3 -25z"/>
<path d="M6055 4320 c3 -5 10 -10 16 -10 5 0 9 5 9 10 0 6 -7 10 -16 10 -8 0
-12 -4 -9 -10z"/>
<path d="M5680 4131 c-10 -9 -49 -54 -86 -101 -72 -89 -191 -205 -278 -270
-113 -85 -332 -184 -461 -209 -62 -13 -145 -48 -145 -63 0 -4 -9 -8 -20 -8
-11 0 -29 -9 -40 -20 -13 -13 -21 -16 -21 -7 -1 6 -7 -40 -14 -103 l-12 -115
-3 115 c-2 63 -5 100 -7 82 -2 -18 -9 -30 -14 -27 -5 4 -9 2 -9 -2 0 -5 -18
-28 -40 -52 -22 -23 -40 -49 -40 -56 0 -7 -12 -21 -27 -30 -31 -20 -83 -72
-83 -84 0 -13 -46 -47 -58 -43 -7 2 -13 -6 -14 -20 -4 -56 -8 -135 -17 -308
l-9 -185 0 150 c0 83 -1 168 -2 190 l-2 40 -13 -49 c-8 -27 -14 -98 -14 -162
0 -109 -1 -116 -26 -146 -27 -31 -28 -52 -9 -102 6 -14 4 -17 -6 -11 -8 5 -5
-5 6 -24 30 -51 63 -62 55 -18 -1 5 3 6 8 3 4 -3 9 -17 9 -32 0 -32 4 -36 77
-72 72 -36 125 -49 125 -32 0 9 10 11 30 7 18 -4 30 -2 30 4 0 6 7 4 15 -4 20
-20 156 -31 285 -23 247 17 437 103 639 290 67 63 161 193 161 224 0 17 3 22
8 15 8 -13 28 25 51 99 13 40 19 286 11 413 l-5 80 -16 -120 -16 -120 5 125
c5 120 5 124 -13 110 -17 -14 -17 -13 1 20 13 24 19 55 19 102 0 36 -3 64 -7
61 -9 -5 -9 -8 -13 82 -3 50 3 97 20 165 13 52 26 131 30 176 6 72 5 81 -10
81 -9 0 -25 -7 -35 -16z"/>
<path d="M6150 4075 c0 -8 2 -15 4 -15 2 0 6 7 10 15 3 8 1 15 -4 15 -6 0 -10
-7 -10 -15z"/>
<path d="M6065 4037 c-4 -10 -5 -21 -1 -24 10 -10 18 4 13 24 -4 17 -4 17 -12
0z"/>
<path d="M6130 3965 c0 -8 2 -15 4 -15 2 0 6 7 10 15 3 8 1 15 -4 15 -6 0 -10
-7 -10 -15z"/>
<path d="M6147 3914 c-6 -10 9 -42 16 -34 3 3 1 14 -3 24 -3 11 -9 15 -13 10z"/>
<path d="M6128 3393 c7 -3 16 -2 19 1 4 3 -2 6 -13 5 -11 0 -14 -3 -6 -6z"/>
<path d="M5683 2736 c-12 -7 -45 -34 -73 -60 -46 -43 -50 -51 -50 -92 0 -25
-4 -43 -9 -40 -5 3 -7 15 -4 25 3 10 0 22 -6 25 -11 7 -15 -5 -12 -31 1 -7 -4
-13 -12 -13 -8 0 -32 -14 -53 -31 -22 -17 -77 -57 -124 -89 -47 -32 -96 -68
-109 -81 -23 -21 -23 -23 -5 -36 26 -19 51 -16 133 17 40 17 81 30 90 30 20 0
93 38 103 54 4 6 8 22 8 35 0 23 1 23 13 7 12 -16 16 -13 56 33 42 51 42 51
19 60 l-23 10 23 0 c29 1 49 25 78 97 26 63 29 84 15 84 -5 0 -15 2 -23 4 -7
2 -23 -1 -35 -8z"/>
<path d="M6150 2591 c0 -25 6 -27 13 -6 4 8 2 17 -3 20 -6 4 -10 -3 -10 -14z"/>
<path d="M6086 2371 c-4 -7 -5 -15 -2 -18 9 -9 19 4 14 18 -4 11 -6 11 -12 0z"/>
<path d="M6053 2185 c0 -8 4 -12 9 -9 5 3 6 10 3 15 -9 13 -12 11 -12 -6z"/>
<path d="M5815 1924 c-33 -58 -67 -113 -75 -122 -8 -9 -26 -38 -40 -64 -14
-27 -28 -48 -32 -48 -5 0 -8 -11 -8 -25 0 -14 -6 -25 -12 -25 -7 0 -23 -15
-36 -33 -123 -177 -317 -352 -495 -447 -73 -38 -102 -60 -100 -70 4 -12 2 -12
-5 -2 -7 11 -20 8 -63 -12 -30 -13 -76 -30 -102 -37 -26 -6 -50 -15 -53 -20
-3 -5 -14 -9 -25 -9 -10 0 -19 -5 -19 -12 0 -6 -3 -9 -6 -5 -4 3 -13 -1 -21
-9 -8 -8 -18 -12 -23 -9 -12 7 -29 -18 -44 -66 l-14 -44 -1 42 c-1 42 -1 42
-33 37 -18 -3 -49 -10 -69 -15 -20 -5 -43 -7 -51 -4 -8 3 -32 0 -54 -7 -21 -8
-54 -13 -71 -13 -39 1 -40 -1 -10 -33 22 -24 22 -25 0 -14 -26 14 -33 1 -34
-71 0 -29 -4 -61 -9 -72 -7 -15 -9 -10 -9 25 1 25 0 61 -2 80 -2 33 -2 33 -8
-10 -5 -40 -9 -45 -35 -48 -25 -3 -27 -6 -22 -30 4 -15 8 -37 11 -50 6 -37 36
-77 45 -62 5 7 6 20 3 29 -4 14 -3 14 6 1 6 -8 11 -27 11 -41 0 -26 41 -71 90
-98 67 -37 84 -43 138 -45 31 -2 90 -13 130 -25 56 -17 99 -22 190 -23 102 -1
128 3 202 27 118 38 180 72 286 153 175 136 356 370 410 529 12 36 24 59 26
52 7 -20 37 99 52 205 15 108 9 115 -16 23 -10 -34 -16 -46 -13 -27 2 19 7 62
10 95 6 58 5 59 -10 33 -9 -16 -18 -28 -20 -28 -5 0 2 18 30 83 10 24 13 43 7
50 -19 26 -12 109 21 238 29 114 42 180 34 179 -1 0 -29 -48 -62 -106z m-14
-611 c-8 -15 -10 -15 -11 -2 0 17 10 32 18 25 2 -3 -1 -13 -7 -23z"/>
<path d="M6025 2010 c-3 -5 -1 -10 4 -10 6 0 11 5 11 10 0 6 -2 10 -4 10 -3 0
-8 -4 -11 -10z"/>
<path d="M6037 1870 c-3 -11 -1 -20 4 -20 5 0 9 9 9 20 0 11 -2 20 -4 20 -2 0
-6 -9 -9 -20z"/>
<path d="M6030 1651 c0 -6 5 -13 10 -16 6 -3 10 1 10 9 0 9 -4 16 -10 16 -5 0
-10 -4 -10 -9z"/>
<path d="M6045 1561 c-3 -5 -2 -12 3 -15 5 -3 9 1 9 9 0 17 -3 19 -12 6z"/>
<path d="M6168 1413 c7 -3 16 -2 19 1 4 3 -2 6 -13 5 -11 0 -14 -3 -6 -6z"/>
<path d="M4230 1119 c0 -5 5 -7 10 -4 6 3 10 8 10 11 0 2 -4 4 -10 4 -5 0 -10
-5 -10 -11z"/>
<path d="M5766 965 c-74 -70 -106 -117 -106 -157 0 -21 -4 -38 -10 -38 -5 0
-10 8 -10 18 -1 16 -1 16 -11 -1 -6 -10 -8 -24 -5 -32 3 -8 -1 -15 -9 -17 -7
-2 -60 -46 -116 -98 -225 -209 -232 -217 -190 -240 23 -12 87 8 144 46 22 14
48 27 59 29 24 5 88 48 113 75 10 11 21 45 25 77 6 45 8 49 9 21 0 -20 4 -39
9 -42 8 -5 82 98 82 115 0 5 -10 14 -22 19 -23 9 -23 9 2 10 14 0 30 4 36 8
10 7 57 140 74 209 7 30 6 32 -17 31 -14 -2 -40 -16 -57 -33z m-106 -220 c0
-8 -4 -15 -10 -15 -5 0 -10 7 -10 15 0 8 5 15 10 15 6 0 10 -7 10 -15z"/>
<path d="M6051 784 c0 -11 3 -14 6 -6 3 7 2 16 -1 19 -3 4 -6 -2 -5 -13z"/>
<path d="M4200 461 c0 -5 7 -11 14 -14 10 -4 13 -1 9 9 -6 15 -23 19 -23 5z"/>
</g>
</svg>
